<?xml version="1.0" encoding="UTF-8"?>
<!DOCTYPE svg PUBLIC "-//W3C//DTD SVG 1.1//EN" "http://www.w3.org/Graphics/SVG/1.1/DTD/svg11.dtd">
<svg xmlns="http://www.w3.org/2000/svg" version="1.1" width="1024px" height="1024px" style="shape-rendering:geometricPrecision; text-rendering:geometricPrecision; image-rendering:optimizeQuality; fill-rule:evenodd; clip-rule:evenodd" xmlns:xlink="http://www.w3.org/1999/xlink">
<g><path style="opacity:1" fill="#242321" d="M -0.5,-0.5 C 340.833,-0.5 682.167,-0.5 1023.5,-0.5C 1023.5,335.5 1023.5,671.5 1023.5,1007.5C 1018.17,1007.5 1012.83,1007.5 1007.5,1007.5C 1002.17,1007.5 996.833,1007.5 991.5,1007.5C 986.167,1007.5 980.833,1007.5 975.5,1007.5C 970.167,1007.5 964.833,1007.5 959.5,1007.5C 954.167,1007.5 948.833,1007.5 943.5,1007.5C 943.5,1012.83 943.5,1018.17 943.5,1023.5C 628.833,1023.5 314.167,1023.5 -0.5,1023.5C -0.5,682.167 -0.5,340.833 -0.5,-0.5 Z"/></g>
<g><path style="opacity:1" fill="#c9bd89" d="M 721.5,467.5 C 720.492,477.335 716.492,485.835 709.5,493C 698.481,496.804 692.148,492.97 690.5,481.5C 700.039,440.433 688.039,407.266 654.5,382C 646.924,378.045 639.257,374.378 631.5,371C 623.137,368.736 614.637,367.236 606,366.5C 576.186,367.454 549.52,377.121 526,395.5C 525.333,396.167 525.333,396.833 526,397.5C 531.677,404.009 537.511,410.343 543.5,416.5C 552.738,408.427 562.404,400.927 572.5,394C 604.169,378.925 632.336,383.758 657,408.5C 667.684,420.534 674.017,434.534 676,450.5C 676.816,468.884 676.149,487.217 674,505.5C 670.9,514.569 669.067,523.903 668.5,533.5C 675.736,531.919 682.736,529.419 689.5,526C 702.884,517.948 714.384,507.782 724,495.5C 726.885,491.131 729.051,486.464 730.5,481.5C 736.903,469.153 739.903,455.82 739.5,441.5C 739.275,430.559 737.609,419.892 734.5,409.5C 742.081,407.69 749.748,406.857 757.5,407C 759.081,407.707 760.581,408.54 762,409.5C 774.283,457.686 762.45,498.852 726.5,533C 698.701,554.772 667.034,566.605 631.5,568.5C 632.294,554.999 635.127,541.999 640,529.5C 643,515.167 646,500.833 649,486.5C 649.853,473.462 649.52,460.462 648,447.5C 638.508,420.965 620.008,410.132 592.5,415C 588.241,416.934 584.241,419.268 580.5,422C 567.946,432.892 555.113,443.392 542,453.5C 527.054,437.643 512.554,421.31 498.5,404.5C 471.638,375.757 438.638,363.591 399.5,368C 360.759,377.741 336.259,401.908 326,440.5C 325.449,455.606 326.115,470.606 328,485.5C 326.431,494.195 321.598,497.028 313.5,494C 307.507,489.529 303.34,483.696 301,476.5C 296.181,458.775 296.514,441.108 302,423.5C 314.636,389.53 337.136,364.363 369.5,348C 407.692,334.55 444.692,337.216 480.5,356C 490.044,361.932 499.377,368.099 508.5,374.5C 519.409,366.777 530.742,359.61 542.5,353C 561.537,344.381 581.537,339.547 602.5,338.5C 660.73,342.706 699.564,372.373 719,427.5C 721.244,440.728 722.077,454.061 721.5,467.5 Z"/></g>
<g><path style="opacity:1" fill="#252525" d="M 721.5,467.5 C 722.683,467.156 723.516,467.822 724,469.5C 725.154,468.257 726.488,467.257 728,466.5C 728.5,468.333 729.667,469.5 731.5,470C 729.942,472.054 727.942,473.554 725.5,474.5C 726.747,476.042 726.747,477.542 725.5,479C 726.449,479.617 727.282,479.451 728,478.5C 729.417,479.078 730.25,480.078 730.5,481.5C 729.051,486.464 726.885,491.131 724,495.5C 714.384,507.782 702.884,517.948 689.5,526C 682.736,529.419 675.736,531.919 668.5,533.5C 669.067,523.903 670.9,514.569 674,505.5C 676.149,487.217 676.816,468.884 676,450.5C 674.017,434.534 667.684,420.534 657,408.5C 632.336,383.758 604.169,378.925 572.5,394C 562.404,400.927 552.738,408.427 543.5,416.5C 537.511,410.343 531.677,404.009 526,397.5C 525.333,396.833 525.333,396.167 526,395.5C 549.52,377.121 576.186,367.454 606,366.5C 614.637,367.236 623.137,368.736 631.5,371C 639.257,374.378 646.924,378.045 654.5,382C 688.039,407.266 700.039,440.433 690.5,481.5C 692.148,492.97 698.481,496.804 709.5,493C 716.492,485.835 720.492,477.335 721.5,467.5 Z"/></g>
<g><path style="opacity:1" fill="#c9bd89" d="M 403.5,385.5 C 419.157,383.532 433.824,386.365 447.5,394C 451.666,396.917 455.999,399.584 460.5,402C 465.313,406.57 470.313,410.903 475.5,415C 481.995,420.997 487.995,427.497 493.5,434.5C 487.514,440.317 481.348,445.984 475,451.5C 470.189,448.022 466.022,443.855 462.5,439C 451.668,429.753 440.001,421.753 427.5,415C 405.355,408.995 388.522,415.829 377,435.5C 374.876,439.297 373.209,443.297 372,447.5C 370.443,459.451 370.109,471.451 371,483.5C 377.162,512.15 383.328,540.816 389.5,569.5C 358.066,566.566 329.066,556.732 302.5,540C 269.626,514.077 253.293,480.077 253.5,438C 253.667,432.833 253.833,427.667 254,422.5C 255.373,417.928 256.206,413.261 256.5,408.5C 266.19,408.168 275.856,408.502 285.5,409.5C 273.498,455.076 285.832,492.243 322.5,521C 332.16,527.166 342.494,531.666 353.5,534.5C 349.373,517.363 346.206,500.03 344,482.5C 338.285,449.821 347.451,422.321 371.5,400C 381.167,392.661 391.834,387.828 403.5,385.5 Z"/></g>
<g><path style="opacity:1" fill="#c9bd89" d="M 397.5,497.5 C 396.723,488.188 396.39,478.854 396.5,469.5C 396.809,456.254 400.142,443.921 406.5,432.5C 414.167,437.333 421.833,442.167 429.5,447C 446.811,460.98 463.477,475.647 479.5,491C 483.14,494.646 487.307,497.479 492,499.5C 489.152,518.349 488.819,537.349 491,556.5C 495.336,575.544 499.669,594.544 504,613.5C 505.433,619.762 507.6,625.762 510.5,631.5C 512.146,627.94 513.646,624.273 515,620.5C 520.558,596.909 525.558,573.242 530,549.5C 530.829,544.198 531.329,538.864 531.5,533.5C 530.638,521.467 529.805,509.467 529,497.5C 551.567,475.596 574.734,454.429 598.5,434C 606.497,431.955 613.331,433.788 619,439.5C 625.176,461.878 626.176,484.544 622,507.5C 617.737,526.285 613.07,544.952 608,563.5C 593.849,610.115 580.016,656.781 566.5,703.5C 529.494,703.833 492.494,703.5 455.5,702.5C 437.002,645.861 419.835,588.861 404,531.5C 401.382,520.245 399.216,508.912 397.5,497.5 Z"/></g>
<g><path style="opacity:1" fill="#242423" d="M 598.5,470.5 C 599.156,471.622 599.489,472.955 599.5,474.5C 598.734,482.896 597.567,491.23 596,499.5C 581.087,559.371 564.587,618.705 546.5,677.5C 522.507,678.666 498.507,678.833 474.5,678C 461.103,632.819 447.936,587.652 435,542.5C 431.919,528.425 428.585,514.425 425,500.5C 424.06,495.019 423.227,489.519 422.5,484C 422.833,481.5 423.167,479 423.5,476.5C 435.711,487.217 448.045,497.717 460.5,508C 463.04,510.205 465.207,512.705 467,515.5C 466.119,525.966 465.286,536.466 464.5,547C 464.538,553.207 465.038,559.374 466,565.5C 472.564,594.847 479.564,624.18 487,653.5C 502.426,654.657 517.926,654.824 533.5,654C 541.504,625.483 548.337,596.65 554,567.5C 554.894,559.358 555.394,551.191 555.5,543C 554.656,532.482 553.822,521.982 553,511.5C 567.415,496.915 582.581,483.248 598.5,470.5 Z"/></g>
<g><path style="opacity:1" fill="#625e4a" d="M 396.5,469.5 C 396.39,478.854 396.723,488.188 397.5,497.5C 396.016,492.075 395.349,486.409 395.5,480.5C 395.501,476.651 395.835,472.984 396.5,469.5 Z"/></g>
<g><path style="opacity:1" fill="#feff65" d="M 959.5,1007.5 C 959.5,1012.83 959.5,1018.17 959.5,1023.5C 954.167,1023.5 948.833,1023.5 943.5,1023.5C 943.5,1018.17 943.5,1012.83 943.5,1007.5C 948.833,1007.5 954.167,1007.5 959.5,1007.5 Z"/></g>
<g><path style="opacity:1" fill="#42fffe" d="M 959.5,1007.5 C 964.833,1007.5 970.167,1007.5 975.5,1007.5C 975.5,1012.83 975.5,1018.17 975.5,1023.5C 970.167,1023.5 964.833,1023.5 959.5,1023.5C 959.5,1018.17 959.5,1012.83 959.5,1007.5 Z"/></g>
<g><path style="opacity:1" fill="#51da4b" d="M 975.5,1007.5 C 980.833,1007.5 986.167,1007.5 991.5,1007.5C 991.5,1012.83 991.5,1018.17 991.5,1023.5C 986.167,1023.5 980.833,1023.5 975.5,1023.5C 975.5,1018.17 975.5,1012.83 975.5,1007.5 Z"/></g>
<g><path style="opacity:1" fill="#fe6e3b" d="M 991.5,1007.5 C 996.833,1007.5 1002.17,1007.5 1007.5,1007.5C 1007.5,1012.83 1007.5,1018.17 1007.5,1023.5C 1002.17,1023.5 996.833,1023.5 991.5,1023.5C 991.5,1018.17 991.5,1012.83 991.5,1007.5 Z"/></g>
<g><path style="opacity:1" fill="#3c45ff" d="M 1007.5,1007.5 C 1012.83,1007.5 1018.17,1007.5 1023.5,1007.5C 1023.5,1012.83 1023.5,1018.17 1023.5,1023.5C 1018.17,1023.5 1012.83,1023.5 1007.5,1023.5C 1007.5,1018.17 1007.5,1012.83 1007.5,1007.5 Z"/></g>
</svg>
